<svg id="Group_72" data-name="Group 72" xmlns="http://www.w3.org/2000/svg" xmlns:xlink="http://www.w3.org/1999/xlink" width="248.918" height="100.915" viewBox="0 0 248.918 100.915">
  <defs>
    <clipPath id="clip-path">
      <path id="Clip_17" data-name="Clip 17" d="M0,100.915H248.918V0H0Z" transform="translate(0.528 0.228)" fill="none"/>
    </clipPath>
  </defs>
  <path id="Fill_2" data-name="Fill 2" d="M18.318,20.337H2.51c-.352,0-.516-.171-.516-.539V10.967a.453.453,0,0,1,.516-.516H18.318c.371,0,.56.174.56.516V19.8C18.878,20.161,18.694,20.337,18.318,20.337ZM4.058,12.36c-.067,0-.09.022-.09.089v5.865l.09.113H16.77c.061-.021.112-.044.112-.113V12.449l-.112-.089Zm15.448-2.9h0L17.6,7.281.493,8.451,0,6.5l1.994-.114A51.739,51.739,0,0,0,6.613,0l1.57,1.079A50.433,50.433,0,0,1,4.618,6.2L15.9,5.527l-2.758-2.65L14.55,1.506a72.4,72.4,0,0,1,6.479,6.7L19.506,9.461Z" transform="translate(77.185 31.423)" fill="#fff"/>
  <path id="Fill_4" data-name="Fill 4" d="M15.214,20.976c-1.622,0-3.738-.086-6.29-.256L8.834,19.1c2.23.227,3.723.339,4.842.36.319.005.628.008.917.008,2.285,0,3.629-.154,3.993-.459a3.058,3.058,0,0,0,.247-.987H5.963l-.224.787-1.481-.585.965-3.6c.091-.255.239-.379.453-.379a.681.681,0,0,1,.152.019H17.914v-.584c0-.105-.059-.157-.18-.157H5.089V12.157H19.079a.338.338,0,0,1,.382.359v3.753H17.914V15.64H6.883c-.224.024-.338.2-.338.517l-.157.472H20.042a.6.6,0,0,1,.458.154.434.434,0,0,1,.1.34,5.082,5.082,0,0,1-.92,2.945l-.627.517A11.4,11.4,0,0,1,15.214,20.976Zm-13.4-.727h0l-1.793-.54a17.784,17.784,0,0,0,2.309-8.089l1.726.089a19.837,19.837,0,0,1-2.242,8.539Zm16.815-8.382H17.172V7.528l-1.95.2a6.437,6.437,0,0,0-.336-1.437l1.166-.135.9-1.012A11.509,11.509,0,0,0,15,3.28l.875-1.19.134.067L17.151,0l1.256.741a24.489,24.489,0,0,1-1.368,2.383l.74.809a15.643,15.643,0,0,0,.964-2.112l1.391.472a12.094,12.094,0,0,1-2.2,3.617L19.169,5.8l-.225-.7,1.3-.383a22.873,22.873,0,0,1,.9,2.786L19.819,7.8l-.157-.563-1.031.135v4.495ZM7.78,11.776H6.3V7.641l-2.017.268a8.861,8.861,0,0,0-.36-1.416l1.1-.156L6.053,5.146A8.8,8.8,0,0,0,4.036,3.775l.65-1.327.2.091A24.4,24.4,0,0,0,6.076,0l1.3.7A24.648,24.648,0,0,1,6.03,3.3l.853.652A14.122,14.122,0,0,0,7.8,1.911l1.391.472a12.477,12.477,0,0,1-2.244,3.64l1.3-.18-.269-.809,1.346-.382a13.3,13.3,0,0,1,.785,2.966l-1.345.314L8.631,7.3l-.851.158v4.313Zm-2.6-.247h0l-1.3-.4A22.3,22.3,0,0,0,4.416,8.5l1.323.291-.561,2.742Zm10.964-.023h0l-1.321-.36a18.645,18.645,0,0,0,.516-2.92l1.345.29a19.578,19.578,0,0,1-.538,2.989Zm3.655-.112h0l-.761-2.809,1.322-.337.762,2.9-1.322.248Zm-5.336,0H10.537c-.105,0-.157-.059-.157-.18V7.348c0-.112.044-.156.157-.156H14.46c.121,0,.179.051.179.156v3.866A.165.165,0,0,1,14.46,11.394ZM11.614,8.316l-.045.043V10.2l.045.068h1.771l.067-.068V8.359l-.067-.043ZM8.744,11.1h0a11.87,11.87,0,0,0-.584-2.291l1.37-.269a22.2,22.2,0,0,1,.56,2.358l-1.345.2ZM2.623,9.641h0A21.576,21.576,0,0,0,0,7.192l1.144-1.3A18.308,18.308,0,0,1,3.856,8.359L2.623,9.64ZM14.55,6.562H10.426V5.438H14.55V6.561ZM14.639,4.9H10.334V3.775h4.306V4.9Zm-11.7-.63h0A17.683,17.683,0,0,0,.29,2.091L1.346.7A14.419,14.419,0,0,1,4.08,2.966l-1.141,1.3ZM15,3.213H9.8v-1.1H15v1.1Zm-.269-1.661H10.156V.427h4.574V1.551Z" transform="translate(101.731 31.558)" fill="#fff"/>
  <path id="Fill_6" data-name="Fill 6" d="M17.067,21.021a11.278,11.278,0,0,1-2.336-.3V19.1H4.844a.225.225,0,0,1-.247-.247v-5.1a.224.224,0,0,1,.247-.247h10.6c.177,0,.27.085.27.247v5.1h-.023v.068a7.006,7.006,0,0,0,1.1.118,1.053,1.053,0,0,0,.45-.071,1.02,1.02,0,0,0,.492-.9V12.45a.117.117,0,0,0-.132-.135H2.713a.118.118,0,0,0-.133.135v8.359H.672V11.035a.414.414,0,0,1,.45-.474H19.192c.307,0,.45.151.45.474v7.818a2.03,2.03,0,0,1-.9,1.775A2.974,2.974,0,0,1,17.067,21.021ZM6.412,15.169c-.039,0-.062.007-.071.022a.047.047,0,0,0,0,.046v2.136l.068.09H13.9l.068-.09V15.236l-.068-.068ZM17.018,9.507H3.3a.239.239,0,0,1-.269-.27V4.7A.239.239,0,0,1,3.3,4.427H17.018a.239.239,0,0,1,.269.269v4.54A.239.239,0,0,1,17.018,9.507ZM5,6.157c-.036,0-.058.007-.068.022a.076.076,0,0,0,0,.068V7.663c-.011.033-.012.054,0,.069s.032.021.068.021H15.29l.091-.09V6.247c0-.067-.023-.09-.091-.09ZM20.268,3.393H0V1.573H9.26V0h1.883V1.573h9.125V3.392Z" transform="translate(126.814 31.558)" fill="#fff"/>
  <path id="Fill_8" data-name="Fill 8" d="M14.821,20.875h0l-1.48-.92.851-.987-6.367,1.19L7.4,18.494l2.939-.471V16.2H7.825v-1.46h2.512V13.394H7.915V11.933h6.5v1.461H12.062v1.348h2.355V16.2H12.062v1.552l2.04-.361.225,1.4a27.045,27.045,0,0,0,2.13-3.08,46.3,46.3,0,0,1-1.368-10H7.49V4.158h2.756V2.989H8.095V1.438h2.151V0h1.728V1.438h2.108V2.989H11.974V4.158h3.048L14.979.113l1.7.157V4.158H20.2v1.55H16.726a50.87,50.87,0,0,0,.83,7.708,26.2,26.2,0,0,0,1.5-6.067l1.547.224A25.269,25.269,0,0,1,18.071,15.8l.606,1.842c.147.465.306.743.427.743.069,0,.113-.074.134-.226a17.541,17.541,0,0,0,.135-2.943l1.658.472c-.151,2.769-.5,4.485-.986,4.831a1.127,1.127,0,0,1-1.682-.314,9.1,9.1,0,0,1-1.278-2.515c-1.133,1.691-1.874,2.734-2.263,3.188ZM.74,20.832h0L.023,19.147l2.958-.99V10.9H.472V9.169h2.51V7.393H1.01V5.664H6.547v1.73H4.71V9.169H7.063V10.9H4.71v6.629l1.86-.853.761,1.64A32.834,32.834,0,0,1,.741,20.832Zm.135-3.64h0a28.757,28.757,0,0,0-.628-4.4l1.7-.2c.329,1.993.529,3.428.629,4.517l-1.7.091Zm5.807-.878h0l-1.591-.336a20.539,20.539,0,0,0,.492-3.844l1.615.226a30.534,30.534,0,0,1-.516,3.954Zm7.623-5.37H8.162c-.138,0-.2-.072-.2-.226V6.855a.178.178,0,0,1,.2-.2H14.3a.178.178,0,0,1,.2.2v3.864C14.506,10.873,14.442,10.945,14.3,10.945ZM9.6,8.136c-.039,0-.063.007-.072.022a.045.045,0,0,0,0,.044V9.394l.068.067h3.273l.089-.067V8.2l-.089-.066ZM1.66,4.765h0L0,3.664A9.953,9.953,0,0,0,3.61.134H5.337L5.224.472A23.773,23.773,0,0,0,7.87,2.54L6.526,3.865A23.627,23.627,0,0,1,4.462,1.956a18.336,18.336,0,0,1-2.8,2.808ZM19.327,3.484h0a16.736,16.736,0,0,0-1.7-2.426L18.879.113A18.742,18.742,0,0,1,20.65,2.606l-1.323.877Z" transform="translate(151.092 31.737)" fill="#fff"/>
  <path id="Fill_10" data-name="Fill 10" d="M14.26,20.585H12.377V13.91a21.3,21.3,0,0,1-5.852,4.966l-1.3-1.461a23.015,23.015,0,0,0,6.524-5.483H7.421v-1.82h4.955V7.3H14.26v2.809h5.964v1.82H14.932a21.679,21.679,0,0,0,6.166,5.46l-1.48,1.3a28.119,28.119,0,0,1-5.359-4.855v6.742ZM2.441,20.547a7.212,7.212,0,0,1-2.126-.39L.2,18.268a9.071,9.071,0,0,0,1.819.3.643.643,0,0,0,.31-.052c.244-.155.358-.312.358-.493V12.875l-1.66.788L0,12.135l2.691-1.214v-5.3H.315V3.775H2.691V0H4.507V3.775H6.3V5.618H4.507V9.865L5.7,9.011l1.121,1.417A19.872,19.872,0,0,1,4.687,11.8l-.18.113v6.539a2.235,2.235,0,0,1-.382,1.3,1.721,1.721,0,0,1-.74.652A2.831,2.831,0,0,1,2.441,20.547ZM7.69,8.7h0L6.8,7.01a5.2,5.2,0,0,0,3.3-1.257,4.322,4.322,0,0,0,.872-2.831V2.315H8.7a.16.16,0,0,0-.157.18V5.258H6.727V.92c0-.233.1-.337.315-.337H19.327l1.57.787A15.289,15.289,0,0,1,20,5.1l-1.725-.562.583-1.955a.25.25,0,0,0-.046-.2.229.229,0,0,0-.18-.066H16.457V5.887a.85.85,0,0,0,.292.674.978.978,0,0,0,.649.293H18.61a.777.777,0,0,0,.492-.2l.313-1.37,1.57.494a5.415,5.415,0,0,1-.493,2.066,1.61,1.61,0,0,1-1.166.653H16.412a1.818,1.818,0,0,1-1.189-.586,1.684,1.684,0,0,1-.492-1.122V2.315H12.69v.607a6.809,6.809,0,0,1-1.008,3.73A6.149,6.149,0,0,1,7.69,8.7Z" transform="translate(175.818 31.805)" fill="#fff"/>
  <path id="Fill_12" data-name="Fill 12" d="M11.366,20.719H9.461V14.4l-8.43.585-.47-1.775,6.9-.427.65-.495a23.989,23.989,0,0,0-4.73-2.831L4.08,7.775a9.547,9.547,0,0,1,1.75.831l.336.248,2.4-2.381H2.6a.16.16,0,0,0-.179.157V9.887H.515v-4.9c0-.23.114-.337.359-.337H9.549V3.033H1.166V1.214H9.549V0h1.885V1.214h8.339V3.033H11.434V4.652h7.937l1.659.831a19.3,19.3,0,0,1-1.009,4.652l-1.815-.628a15.9,15.9,0,0,0,.672-2.766.244.244,0,0,0-.044-.2.258.258,0,0,0-.2-.071H10.985C10.2,7.36,9.135,8.424,7.622,9.821l1.885,1.325c1.317-1.2,2.614-2.489,3.855-3.82l1.3,1.259A44.54,44.54,0,0,1,10.6,12.562l6.209-.382-1.277-1.551L16.993,9.55a45.316,45.316,0,0,1,4.015,5.326l-1.5.967L18.07,13.8l-6.7.472v6.448Zm8.34-.224h0a53.125,53.125,0,0,0-6.165-3.707l1.01-1.618a66.561,66.561,0,0,1,6.233,3.775l-1.076,1.551Zm-18.765-.2h0L0,18.583A14.5,14.5,0,0,0,5.918,15.19L7.2,16.628A16.716,16.716,0,0,1,.942,20.291Z" transform="translate(200.5 31.738)" fill="#fff"/>
  <path id="Fill_14" data-name="Fill 14" d="M.786,20.7h0l-.54-1.865,1.144-.179V5.8A.456.456,0,0,1,1.906,5.3h2.04V3.326H5.672V5.3H7.937c.353,0,.539.171.539.494v8.5a.49.49,0,0,1-.563.561H3.138v3.44l1.3-.315,2.4-.586-.628-1.37,1.636-.607c.316.8.594,1.495.84,2.108.516,1.289.855,2.139.977,2.52L8,20.54l-.448-1.349C4.7,19.924,2.485,20.417.787,20.7Zm2.353-9.8v2.226H6.458c.2,0,.291-.09.291-.293V10.9Zm.4-3.864c-.283,0-.4.128-.4.428V9.169h3.61V7.462c0-.288-.146-.428-.447-.428Zm16.12,13.415H11.144c-.4,0-.584-.2-.584-.629V6.427c0-.343.166-.517.493-.517H19.1a.467.467,0,0,1,.537.517V11.5a.477.477,0,0,1-.537.54H12.376V13.64h7.331a.527.527,0,0,1,.6.585v5.55A.587.587,0,0,1,19.661,20.449Zm-7.285-5.08V18.36c0,.148.06.223.179.223H18.16c.138,0,.2-.071.2-.223V15.574a.18.18,0,0,0-.2-.2H12.376ZM12.6,7.641a.218.218,0,0,0-.226.248v2.425h5.179a.239.239,0,0,0,.269-.27V7.889c0-.162-.093-.248-.269-.248ZM20.224,6h0L18.587,5.46A12.722,12.722,0,0,0,19.1,3.528c0-.184-.071-.27-.225-.27H10.829c-.1,0-.157.06-.157.179V5.753H8.923V2.719L7.714,4.068a27.459,27.459,0,0,1-2.647-2.18A15.682,15.682,0,0,1,1.615,5.01L0,3.864C2.214,2.566,3.647,1.319,4.261.157H6.008L5.874.494c.931.72,1.928,1.419,3.048,2.136V1.865a.3.3,0,0,1,.338-.337H14.1V0h1.905V1.528h3.564l1.571.787A16.108,16.108,0,0,1,20.224,6Z" transform="translate(224.979 31.738)" fill="#fff"/>
  <path id="Clip_17-2" data-name="Clip 17" d="M0,100.915H248.918V0H0Z" fill="none"/>
  <g id="Group_72-2" data-name="Group 72" transform="translate(-0.528 -0.229)" clip-path="url(#clip-path)">
    <path id="Fill_16" data-name="Fill 16" d="M0,11.2H167.587V0H0Z" transform="translate(79.304 57.488)" fill="#fff"/>
    <path id="Fill_18" data-name="Fill 18" d="M1.779,6.01V1.018H0V0H4.765V1.018H2.99V6.01Z" transform="translate(82.149 60.051)" fill="#3b3734"/>
    <path id="Fill_19" data-name="Fill 19" d="M1.283,6.01H0L2.335,0h1.28l2.4,6.008H4.7L4.175,4.645h-2.4l-.5,1.364ZM2.962,1.4,2.151,3.632H3.787Z" transform="translate(87.547 60.051)" fill="#3b3734"/>
    <path id="Fill_20" data-name="Fill 20" d="M0,6.01H1.211V0H0Z" transform="translate(94.628 60.052)" fill="#3b3734"/>
    <path id="Fill_21" data-name="Fill 21" d="M1.431,6.01,0,0H1.238l.905,4.128L3.238,0h1.44l1.05,4.2L6.649,0H7.867L6.412,6.01H5.127L3.933,1.517,2.744,6.01Z" transform="translate(96.872 60.051)" fill="#3b3734"/>
    <path id="Fill_22" data-name="Fill 22" d="M1.283,6.01H0L2.335,0H3.615l2.4,6.008H4.7L4.175,4.645h-2.4l-.5,1.364ZM2.962,1.4,2.151,3.632H3.787Z" transform="translate(105.209 60.051)" fill="#3b3734"/>
    <path id="Fill_23" data-name="Fill 23" d="M0,6.01V0H1.178L3.632,4.013V0H4.756V6.01H3.543L1.124,2.091V6.01Z" transform="translate(112.339 60.051)" fill="#3b3734"/>
    <path id="Fill_24" data-name="Fill 24" d="M0,6.01V0H1.211V2.366H3.583V0h1.21V6.01H3.583V3.382H1.211V6.01Z" transform="translate(121.627 60.051)" fill="#3b3734"/>
    <path id="Fill_25" data-name="Fill 25" d="M0,6.01H1.211V0H0Z" transform="translate(128.096 60.052)" fill="#3b3734"/>
    <path id="Fill_26" data-name="Fill 26" d="M3,3.9V2.89H5.607V5.284a3.291,3.291,0,0,1-1.1.648,4,4,0,0,1-1.462.281A3.273,3.273,0,0,1,1.4,5.818,2.512,2.512,0,0,1,.351,4.688,3.679,3.679,0,0,1,0,3.087,3.459,3.459,0,0,1,.392,1.419,2.639,2.639,0,0,1,1.542.3,3.093,3.093,0,0,1,2.978,0,2.863,2.863,0,0,1,4.722.469a2.123,2.123,0,0,1,.807,1.3l-1.2.225a1.28,1.28,0,0,0-.477-.7,1.439,1.439,0,0,0-.873-.255,1.64,1.64,0,0,0-1.262.5,2.129,2.129,0,0,0-.468,1.5,2.355,2.355,0,0,0,.474,1.6,1.582,1.582,0,0,0,1.244.535,2.066,2.066,0,0,0,.762-.149,2.653,2.653,0,0,0,.657-.362V3.9Z" transform="translate(130.712 59.949)" fill="#3b3734"/>
    <path id="Fill_27" data-name="Fill 27" d="M0,6.01V0H1.211V2.366H3.583V0h1.21V6.01H3.583V3.382H1.211V6.01Z" transform="translate(137.899 60.051)" fill="#3b3734"/>
    <path id="Fill_28" data-name="Fill 28" d="M0,4.157l1.178-.115a1.448,1.448,0,0,0,.432.874,1.3,1.3,0,0,0,.877.278,1.345,1.345,0,0,0,.881-.248.741.741,0,0,0,.3-.581A.552.552,0,0,0,3.54,4a1.016,1.016,0,0,0-.435-.26q-.214-.075-.971-.263A3.291,3.291,0,0,1,.768,2.886a1.566,1.566,0,0,1-.551-1.21A1.538,1.538,0,0,1,.477.819,1.615,1.615,0,0,1,1.225.21,2.983,2.983,0,0,1,2.4,0,2.525,2.525,0,0,1,4.1.5,1.743,1.743,0,0,1,4.7,1.82l-1.209.054a1.032,1.032,0,0,0-.334-.666A1.205,1.205,0,0,0,2.392,1a1.4,1.4,0,0,0-.826.218.442.442,0,0,0-.192.374.462.462,0,0,0,.18.365,3.163,3.163,0,0,0,1.113.4,5.893,5.893,0,0,1,1.306.432,1.7,1.7,0,0,1,.663.612,1.794,1.794,0,0,1,.238.956,1.764,1.764,0,0,1-.286.968A1.7,1.7,0,0,1,3.779,6a3.387,3.387,0,0,1-1.3.219A2.593,2.593,0,0,1,.729,5.692,2.291,2.291,0,0,1,0,4.157" transform="translate(146.886 59.949)" fill="#3b3734"/>
    <path id="Fill_29" data-name="Fill 29" d="M1.211,6.009H0V0H1.943A6.9,6.9,0,0,1,3.382.09a1.587,1.587,0,0,1,.863.588,1.885,1.885,0,0,1,.347,1.171,1.966,1.966,0,0,1-.2.931,1.628,1.628,0,0,1-.509.592,1.762,1.762,0,0,1-.627.284A6.9,6.9,0,0,1,2,3.743H1.211V6.008Zm0-4.992v1.7h.662a3.125,3.125,0,0,0,.957-.094.805.805,0,0,0,.379-.3.82.82,0,0,0,.136-.468.771.771,0,0,0-.193-.54.838.838,0,0,0-.486-.266,6,6,0,0,0-.87-.04Z" transform="translate(153.24 60.052)" fill="#3b3734"/>
    <path id="Fill_30" data-name="Fill 30" d="M0,6.01V0H4.446V1.018H1.211V2.35H4.22V3.361H1.211V5h3.35V6.01Z" transform="translate(159.287 60.051)" fill="#3b3734"/>
    <path id="Fill_31" data-name="Fill 31" d="M0,6.01V0H4.446V1.018H1.211V2.35H4.22V3.361H1.211V5h3.35V6.01Z" transform="translate(165.334 60.051)" fill="#3b3734"/>
    <path id="Fill_32" data-name="Fill 32" d="M2.278,6.009H0V0H2.214A4.29,4.29,0,0,1,3.353.115a2,2,0,0,1,.9.552,2.645,2.645,0,0,1,.572.975,4.451,4.451,0,0,1,.2,1.42,3.962,3.962,0,0,1-.185,1.279A2.644,2.644,0,0,1,4.2,5.4a2.133,2.133,0,0,1-.851.48A3.655,3.655,0,0,1,2.278,6.009ZM1.211,1.017V5h.9a3.333,3.333,0,0,0,.733-.058,1.1,1.1,0,0,0,.489-.251,1.255,1.255,0,0,0,.316-.58,3.9,3.9,0,0,0,.124-1.1,3.58,3.58,0,0,0-.124-1.07,1.366,1.366,0,0,0-.343-.581,1.152,1.152,0,0,0-.56-.283,5.425,5.425,0,0,0-.994-.057Z" transform="translate(171.377 60.052)" fill="#3b3734"/>
    <path id="Fill_33" data-name="Fill 33" d="M1.211,6.011H0V0H2.548a4.338,4.338,0,0,1,1.4.163,1.387,1.387,0,0,1,.7.575,1.756,1.756,0,0,1,.26.947,1.616,1.616,0,0,1-.4,1.118,1.9,1.9,0,0,1-1.186.554,2.841,2.841,0,0,1,.649.506,7.02,7.02,0,0,1,.689.976l.73,1.171-1.447,0L3.068,4.7a8.677,8.677,0,0,0-.638-.884.96.96,0,0,0-.365-.25A2.024,2.024,0,0,0,1.456,3.5H1.211V6.01Zm0-4.993V2.542h.9a4.49,4.49,0,0,0,1.087-.075.639.639,0,0,0,.339-.253.786.786,0,0,0,.123-.45.715.715,0,0,0-.162-.491.749.749,0,0,0-.455-.236c-.1-.013-.369-.019-.885-.019Z" transform="translate(180.681 60.051)" fill="#3b3734"/>
    <path id="Fill_34" data-name="Fill 34" d="M1.283,6.01H0L2.336,0h1.28l2.4,6.008H4.7L4.175,4.645h-2.4l-.5,1.364ZM2.962,1.4,2.151,3.632H3.787Z" transform="translate(186.577 60.051)" fill="#3b3734"/>
    <path id="Fill_35" data-name="Fill 35" d="M0,6.01H1.211V0H0Z" transform="translate(193.658 60.052)" fill="#3b3734"/>
    <path id="Fill_36" data-name="Fill 36" d="M0,5.961V0H1.21V4.947H4.22V5.961Z" transform="translate(196.517 60.101)" fill="#3b3734"/>
    <path id="Fill_37" data-name="Fill 37" d="M0,6.01V0H1.811L2.9,4.1,3.974,0H5.79V6.01H4.666V1.279L3.475,6.01H2.31L1.124,1.279V6.01Z" transform="translate(204.831 60.051)" fill="#3b3734"/>
    <path id="Fill_38" data-name="Fill 38" d="M0,0H1.211V3.255a6.789,6.789,0,0,0,.044,1,.971.971,0,0,0,.37.593,1.286,1.286,0,0,0,.8.223,1.219,1.219,0,0,0,.777-.21.839.839,0,0,0,.315-.519,6.822,6.822,0,0,0,.053-1.02V0H4.781V3.157a8.1,8.1,0,0,1-.1,1.529,1.72,1.72,0,0,1-.362.754,1.832,1.832,0,0,1-.706.49,3.074,3.074,0,0,1-1.153.182,3.3,3.3,0,0,1-1.3-.2,1.854,1.854,0,0,1-.7-.516A1.668,1.668,0,0,1,.118,4.73,7.347,7.347,0,0,1,0,3.2Z" transform="translate(212.277 60.051)" fill="#3b3734"/>
    <path id="Fill_39" data-name="Fill 39" d="M0,4.157l1.179-.115a1.443,1.443,0,0,0,.431.874,1.3,1.3,0,0,0,.877.278,1.348,1.348,0,0,0,.882-.248.74.74,0,0,0,.3-.581A.552.552,0,0,0,3.54,4a1,1,0,0,0-.435-.26q-.214-.075-.971-.263A3.281,3.281,0,0,1,.769,2.886a1.567,1.567,0,0,1-.552-1.21A1.538,1.538,0,0,1,.477.819,1.617,1.617,0,0,1,1.226.21,2.977,2.977,0,0,1,2.405,0,2.529,2.529,0,0,1,4.1.5,1.746,1.746,0,0,1,4.7,1.82l-1.209.054a1.032,1.032,0,0,0-.334-.666A1.205,1.205,0,0,0,2.392,1a1.391,1.391,0,0,0-.826.218.44.44,0,0,0-.192.374.461.461,0,0,0,.179.365,3.17,3.17,0,0,0,1.113.4,5.893,5.893,0,0,1,1.306.432,1.7,1.7,0,0,1,.663.612,1.794,1.794,0,0,1,.239.956,1.765,1.765,0,0,1-.287.968A1.7,1.7,0,0,1,3.779,6a3.381,3.381,0,0,1-1.3.219A2.594,2.594,0,0,1,.729,5.692,2.291,2.291,0,0,1,0,4.157" transform="translate(218.487 59.949)" fill="#3b3734"/>
    <path id="Fill_40" data-name="Fill 40" d="M0,6.01V0H4.446V1.018H1.211V2.35H4.22V3.361H1.211V5h3.35V6.01Z" transform="translate(224.84 60.051)" fill="#3b3734"/>
    <path id="Fill_41" data-name="Fill 41" d="M0,0H1.211V3.255a6.745,6.745,0,0,0,.045,1,.971.971,0,0,0,.37.593,1.286,1.286,0,0,0,.8.223,1.219,1.219,0,0,0,.777-.21.839.839,0,0,0,.315-.519,6.822,6.822,0,0,0,.053-1.02V0H4.782V3.157a8.011,8.011,0,0,1-.1,1.529,1.709,1.709,0,0,1-.362.754,1.832,1.832,0,0,1-.706.49,3.074,3.074,0,0,1-1.153.182,3.3,3.3,0,0,1-1.3-.2,1.85,1.85,0,0,1-.7-.516A1.668,1.668,0,0,1,.119,4.73,7.335,7.335,0,0,1,0,3.2Z" transform="translate(230.879 60.051)" fill="#3b3734"/>
    <path id="Fill_42" data-name="Fill 42" d="M0,6.01V0H1.812L2.9,4.1,3.975,0H5.791V6.01H4.666V1.279L3.475,6.01H2.31L1.124,1.279V6.01Z" transform="translate(237.38 60.051)" fill="#3b3734"/>
    <path id="Fill_43" data-name="Fill 43" d="M0,7.143H2.377V0H0Z" transform="translate(49.747 93.902)" fill="#fff"/>
    <path id="Fill_44" data-name="Fill 44" d="M0,0V4.973Q.591,5,1.189,5t1.188-.03V0Z" transform="translate(49.747 70.436)" fill="#fff"/>
    <path id="Fill_45" data-name="Fill 45" d="M1.189.03C.791.03.395.015,0,0V11.406c.4.013.791.03,1.189.03s.792-.017,1.188-.03V0c-.394.015-.791.03-1.188.03" transform="translate(49.747 78.368)" fill="#fff"/>
    <path id="Fill_46" data-name="Fill 46" d="M0,7.145H2.377V0H0Z" transform="translate(49.747 -0.282)" fill="#fff"/>
    <path id="Fill_47" data-name="Fill 47" d="M1.189,11.406c.4,0,.794.014,1.188.029V.029C1.981.017,1.586,0,1.189,0S.4.017,0,.029V11.435c.395-.015.791-.029,1.189-.029" transform="translate(49.747 11.649)" fill="#fff"/>
    <path id="Fill_48" data-name="Fill 48" d="M2.377,4.3V.03Q1.786,0,1.189,0T0,.03V4.3Z" transform="translate(49.747 26.015)" fill="#fff"/>
    <path id="Fill_49" data-name="Fill 49" d="M0,1.192,3.562,7.378,5.62,6.187,2.058,0Z" transform="translate(71.616 87.476)" fill="#fff"/>
    <path id="Fill_50" data-name="Fill 50" d="M0,1.21l5.694,9.884c.7-.381,1.375-.788,2.045-1.21L2.046,0Q1.051.646,0,1.21" transform="translate(63.847 73.966)" fill="#fff"/>
    <path id="Fill_51" data-name="Fill 51" d="M0,1.192,2.457,5.458Q3.512,4.9,4.505,4.249L2.058,0Z" transform="translate(59.911 67.153)" fill="#fff"/>
    <path id="Fill_52" data-name="Fill 52" d="M5.621,6.186,2.057,0,0,1.192,3.563,7.378Z" transform="translate(24.634 5.911)" fill="#fff"/>
    <path id="Fill_53" data-name="Fill 53" d="M7.755,9.888,2.061,0C1.362.375.673.768,0,1.183l5.692,9.883q1-.63,2.063-1.179" transform="translate(30.575 16.233)" fill="#fff"/>
    <path id="Fill_54" data-name="Fill 54" d="M4.21,3.728,2.062,0C1.355.359.667.754,0,1.179L2.153,4.917Z" transform="translate(37.746 28.685)" fill="#fff"/>
    <path id="Fill_55" data-name="Fill 55" d="M7.361,3.572,1.188,0,0,2.06,6.172,5.634Z" transform="translate(6.567 24.02)" fill="#fff"/>
    <path id="Fill_56" data-name="Fill 56" d="M5.035,2.212,1.215,0C.779.66.373,1.342,0,2.047L3.848,4.272Z" transform="translate(29.159 37.109)" fill="#fff"/>
    <path id="Fill_57" data-name="Fill 57" d="M11.073,5.707,1.213,0C.791.67.382,1.35,0,2.048l9.857,5.7c.375-.7.785-1.381,1.216-2.045" transform="translate(16.743 29.922)" fill="#fff"/>
    <path id="Fill_58" data-name="Fill 58" d="M0,2.382H7.126V0H0Z" transform="translate(0.391 49.192)" fill="#fff"/>
    <path id="Fill_59" data-name="Fill 59" d="M11.38,1.536c0-.517.017-1.027.045-1.536H.038C.019.511,0,1.021,0,1.536c0,.284.015.562.021.846H11.4c-.008-.284-.021-.562-.021-.846" transform="translate(11.948 49.191)" fill="#fff"/>
    <path id="Fill_60" data-name="Fill 60" d="M4.639,0H.053C.021.509,0,1.019,0,1.536c0,.284.012.565.022.846H4.639Z" transform="translate(26.28 49.191)" fill="#fff"/>
    <path id="Fill_61" data-name="Fill 61" d="M0,3.571,1.188,5.633,7.361,2.062,6.173,0Z" transform="translate(6.567 71.112)" fill="#fff"/>
    <path id="Fill_62" data-name="Fill 62" d="M4.12,0,0,2.384c.356.709.745,1.4,1.166,2.072l4.142-2.4Z" transform="translate(28.887 59.384)" fill="#fff"/>
    <path id="Fill_63" data-name="Fill 63" d="M9.864,0,0,5.707c.371.7.758,1.4,1.17,2.072l9.861-5.707C10.612,1.4,10.225.708,9.864,0" transform="translate(16.464 63.249)" fill="#fff"/>
    <path id="Fill_64" data-name="Fill 64" d="M5.618,1.192,3.562,0,0,6.186,2.056,7.378Z" transform="translate(71.618 5.911)" fill="#fff"/>
    <path id="Fill_65" data-name="Fill 65" d="M2.065,11.066,7.757,1.183Q6.747.561,5.695,0L0,9.888c.708.363,1.4.759,2.065,1.179" transform="translate(63.539 16.232)" fill="#fff"/>
    <path id="Fill_66" data-name="Fill 66" d="M2.058,4.928,4.216,1.181Q3.215.544,2.151,0L0,3.736Z" transform="translate(59.911 28.683)" fill="#fff"/>
    <path id="Fill_67" data-name="Fill 67" d="M0,6.187,2.056,7.378,5.621,1.192,3.564,0Z" transform="translate(24.634 87.476)" fill="#fff"/>
    <path id="Fill_68" data-name="Fill 68" d="M5.695,0,0,9.882c.671.422,1.35.829,2.046,1.21L7.74,1.206Q6.689.647,5.695,0" transform="translate(30.286 73.969)" fill="#fff"/>
    <path id="Fill_69" data-name="Fill 69" d="M2.444,0,0,4.24q.991.653,2.045,1.209L4.5,1.189Z" transform="translate(37.457 67.162)" fill="#fff"/>
    <path id="Fill_70" data-name="Fill 70" d="M42.276,4.244c-.668-.42-1.357-.816-2.065-1.179A27.36,27.36,0,0,0,28.8.029C28.4.014,28.006,0,27.608,0s-.794.014-1.189.029A27.36,27.36,0,0,0,15,3.065q-1.059.549-2.063,1.179a27.863,27.863,0,0,0-8.452,8.331c-.432.664-.841,1.344-1.216,2.044A27.511,27.511,0,0,0,.045,26.137C.017,26.645,0,27.156,0,27.673c0,.284.013.562.021.846A27.553,27.553,0,0,0,3,40.194c.362.708.749,1.4,1.167,2.072a27.842,27.842,0,0,0,8.486,8.648q.994.644,2.044,1.206a27.369,27.369,0,0,0,11.722,3.193c.395.016.791.03,1.189.03s.794-.014,1.188-.03a27.409,27.409,0,0,0,11.723-3.191q1.051-.563,2.045-1.21a27.786,27.786,0,0,0,6.1-5.366l-2.092-2.1a24.813,24.813,0,0,1-5.48,4.9q-.991.653-2.047,1.21a24.433,24.433,0,0,1-10.245,2.8q-.591.031-1.188.03t-1.189-.03a24.422,24.422,0,0,1-10.244-2.8q-1.054-.556-2.046-1.21a24.894,24.894,0,0,1-7.4-7.562c-.421-.67-.809-1.363-1.166-2.072a24.592,24.592,0,0,1-2.585-10.2c-.01-.281-.022-.562-.022-.846,0-.517.021-1.028.053-1.536A24.582,24.582,0,0,1,5.832,16.1c.373-.7.779-1.386,1.215-2.047A24.885,24.885,0,0,1,14.418,6.81c.667-.425,1.355-.82,2.062-1.179A24.4,24.4,0,0,1,26.419,2.99q.592-.03,1.189-.03t1.188.03a24.409,24.409,0,0,1,9.938,2.639Q39.8,6.171,40.8,6.81a24.782,24.782,0,0,1,4.691,3.874l2.086-2.091a27.905,27.905,0,0,0-5.3-4.348" transform="translate(23.328 23.055)" fill="#fff"/>
    <path id="Fill_71" data-name="Fill 71" d="M62.59,75.162c-.67.422-1.349.829-2.046,1.21a38.66,38.66,0,0,1-17.416,4.713c-.4.013-.791.03-1.188.03s-.792-.017-1.189-.03a38.653,38.653,0,0,1-17.415-4.713c-.7-.381-1.376-.788-2.046-1.21A39.318,39.318,0,0,1,8.638,62.339c-.411-.676-.8-1.368-1.17-2.072A38.863,38.863,0,0,1,2.974,42.885c-.008-.284-.022-.562-.022-.846,0-.515.019-1.025.038-1.536A38.889,38.889,0,0,1,7.747,23.282c.382-.7.791-1.378,1.213-2.048A39.313,39.313,0,0,1,21.58,8.727q1.01-.622,2.061-1.183A38.658,38.658,0,0,1,40.751,2.99c.4-.012.791-.029,1.189-.029s.792.017,1.188.029a38.629,38.629,0,0,1,17.11,4.554q1.051.563,2.062,1.183a39.331,39.331,0,0,1,7.651,6.17L72.038,12.8a41.976,41.976,0,1,0-30.1,71.271A41.8,41.8,0,0,0,73.147,70.089l-2.092-2.1a39.277,39.277,0,0,1-8.464,7.169" transform="translate(8.996 8.688)" fill="#fff"/>
  </g>
</svg>
